<?xml version="1.0" encoding="iso-8859-1"?>
<!-- Generator: Adobe Illustrator 19.0.0, SVG Export Plug-In . SVG Version: 6.00 Build 0)  -->
<svg version="1.1" id="Layer_1" xmlns="http://www.w3.org/2000/svg" xmlns:xlink="http://www.w3.org/1999/xlink" x="0px" y="0px"
	 viewBox="0 0 488.369 488.369" style="enable-background:new 0 0 488.369 488.369;" xml:space="preserve">
<polygon style="fill:#E2D3B7;" points="162.895,405.346 0,474.663 0,83.023 162.895,13.706 "/>
<polyline style="fill:#CCBD9F;" points="162.895,13.706 162.895,405.346 0,474.663 "/>
<polygon style="fill:#E2D3B7;" points="488.369,405.346 325.474,474.663 325.474,83.023 488.369,13.706 "/>
<polyline style="fill:#CCBD9F;" points="325.474,474.663 325.474,83.023 488.369,13.706 "/>
<polygon style="fill:#AA9572;" points="162.564,405.346 325.474,474.663 325.474,83.023 162.564,13.706 "/>
<g>
	<path style="fill:#FF4800;" d="M70.144,154.025c-0.016,3.726-3.048,6.743-6.735,6.751l0,0c-3.742-0.016-6.751-3.033-6.751-6.751
		l0.008-38.416c0-3.742,3.025-6.743,6.743-6.735l0,0c3.734,0,6.735,3.009,6.727,6.735L70.144,154.025z"/>
	<path style="fill:#FF4800;" d="M47.364,146.96c-3.726-0.008-6.727-3.009-6.727-6.735l0,0c-0.008-3.718,3.009-6.743,6.743-6.743
		l31.547-12.713c3.71-0.032,6.719,2.985,6.727,6.727l0,0c0,3.702-3.017,6.719-6.727,6.735L47.364,146.96z"/>
</g>
<g>
	<path style="fill:#87BA09;" d="M424.976,401.384c-0.016,3.726-3.048,6.743-6.735,6.743l0,0c-3.742-0.008-6.751-3.033-6.751-6.743
		l0.008-38.416c0-3.742,3.025-6.743,6.743-6.735l0,0c3.734,0,6.735,3.009,6.727,6.735L424.976,401.384z"/>
	<path style="fill:#87BA09;" d="M402.196,394.319c-3.726-0.008-6.727-3.001-6.727-6.727l0,0c-0.008-3.726,3.009-6.743,6.743-6.743
		l31.547-12.721c3.71-0.032,6.719,2.993,6.727,6.735l0,0c0,3.702-3.017,6.719-6.727,6.735L402.196,394.319z"/>
</g>
<g>
	<path style="fill:#918167;" d="M64.347,193.308c-2.111,0-3.812-1.701-3.812-3.812V178.05c0-2.111,1.709-3.812,3.812-3.812
		c2.119,0,3.812,1.709,3.812,3.812v11.445C68.159,191.606,66.465,193.308,64.347,193.308z"/>
	<path style="fill:#918167;" d="M64.347,358.636c-2.111,0-3.812-1.709-3.812-3.812v-20.661c0-2.111,1.709-3.812,3.812-3.812
		c2.119,0,3.812,1.709,3.812,3.812v20.661C68.159,356.927,66.465,358.636,64.347,358.636z M64.347,317.306
		c-2.111,0-3.812-1.701-3.812-3.812v-20.669c0-2.111,1.709-3.812,3.812-3.812c2.119,0,3.812,1.709,3.812,3.812v20.669
		C68.159,315.605,66.465,317.306,64.347,317.306z M64.347,275.976c-2.111,0-3.812-1.709-3.812-3.812v-20.669
		c0-2.111,1.709-3.812,3.812-3.812c2.119,0,3.812,1.709,3.812,3.812v20.669C68.159,274.267,66.465,275.976,64.347,275.976z
		 M64.347,234.638c-2.111,0-3.812-1.709-3.812-3.812v-20.661c0-2.111,1.709-3.812,3.812-3.812c2.119,0,3.812,1.709,3.812,3.812
		v20.661C68.159,232.928,66.465,234.638,64.347,234.638z"/>
	<path style="fill:#918167;" d="M65.607,390.538l-5.081-3.6v-11.445c0-2.111,1.709-3.812,3.812-3.812
		c2.119,0,3.812,1.709,3.812,3.812v6.065l5.711-2.016c2.009-0.693,4.159,0.347,4.86,2.339c0.693,1.985-0.339,4.159-2.324,4.86
		L65.607,390.538z"/>
	<path style="fill:#918167;" d="M228.281,380.203c-0.465,0-0.922-0.087-1.378-0.26l-19.015-7.373
		c-1.977-0.764-2.946-2.97-2.174-4.939c0.756-1.961,2.962-2.954,4.923-2.174l19.023,7.381c1.969,0.756,2.946,2.962,2.182,4.931
		C231.266,379.274,229.817,380.203,228.281,380.203z M94.373,380.18c-1.583,0-3.048-0.977-3.6-2.552
		c-0.709-1.977,0.339-4.159,2.339-4.86l19.228-6.782c2.001-0.701,4.167,0.354,4.86,2.332c0.709,1.985-0.339,4.167-2.332,4.868
		l-19.235,6.782C95.224,380.109,94.791,380.18,94.373,380.18z M132.836,366.624c-1.552,0-3.033-0.977-3.584-2.552
		c-0.709-1.977,0.339-4.159,2.332-4.86l19.235-6.782c2.016-0.717,4.167,0.347,4.86,2.332c0.693,1.985-0.354,4.167-2.339,4.868
		l-19.22,6.774C133.703,366.553,133.27,366.624,132.836,366.624z M190.267,365.45c-0.473,0-0.937-0.079-1.386-0.252l-19.015-7.381
		c-1.969-0.756-2.954-2.962-2.182-4.931c0.756-1.977,2.97-2.946,4.939-2.174l19.015,7.373c1.969,0.764,2.938,2.97,2.182,4.939
		C193.237,364.52,191.795,365.45,190.267,365.45z"/>
	<path style="fill:#918167;" d="M256.591,391.444l-10.673-4.128c-1.961-0.764-2.922-2.97-2.158-4.939
		c0.748-1.969,2.962-2.938,4.939-2.166l5.467,2.119v-5.876c0-2.111,1.709-3.812,3.812-3.812c2.103,0,3.812,1.709,3.812,3.812v11.445
		L256.591,391.444z"/>
	<path style="fill:#918167;" d="M257.977,353.556c-2.111,0-3.812-1.701-3.812-3.812v-26.711c0-2.111,1.709-3.812,3.812-3.812
		c2.103,0,3.812,1.709,3.812,3.812v26.703C261.79,351.846,260.088,353.556,257.977,353.556z"/>
	<path style="fill:#918167;" d="M257.977,300.142c-2.111,0-3.812-1.701-3.812-3.812v-11.445l5.262-3.529l10.602,4.332
		c1.953,0.803,2.875,3.025,2.08,4.978c-0.796,1.953-3.033,2.867-4.97,2.087l-5.341-2.174v5.758
		C261.79,298.433,260.088,300.142,257.977,300.142z"/>
	<path style="fill:#918167;" d="M326.853,315.928c-1.552,0-3.017-0.953-3.584-2.489c-0.725-1.977,0.291-4.175,2.253-4.899
		l19.684-7.247c1.961-0.74,4.167,0.268,4.892,2.253c0.725,1.977-0.276,4.175-2.245,4.899l-19.684,7.247
		C327.735,315.857,327.302,315.928,326.853,315.928z M307.405,308.886c-0.48,0-0.969-0.095-1.449-0.284l-19.417-7.932
		c-1.946-0.803-2.883-3.025-2.079-4.978c0.796-1.953,2.985-2.899,4.97-2.087l19.417,7.924c1.946,0.796,2.875,3.025,2.095,4.978
		C310.335,307.988,308.917,308.886,307.405,308.886z M366.206,301.434c-1.552,0-3.017-0.953-3.568-2.497
		c-0.74-1.969,0.276-4.167,2.245-4.892l19.7-7.255c1.946-0.74,4.159,0.276,4.884,2.261c0.74,1.977-0.276,4.167-2.253,4.892
		l-19.7,7.255C367.096,301.355,366.639,301.434,366.206,301.434z"/>
	<path style="fill:#918167;" d="M416.319,294.416c-2.111,0-3.812-1.701-3.812-3.812v-5.979l-5.616,2.072
		c-1.953,0.748-4.159-0.276-4.892-2.261c-0.725-1.969,0.291-4.167,2.245-4.892l10.752-3.962l5.136,3.576v11.445
		C420.131,292.714,418.43,294.416,416.319,294.416z"/>
	<path style="fill:#918167;" d="M416.319,321.772c-2.111,0-3.812-1.709-3.812-3.812v-13.674c0-2.111,1.709-3.812,3.812-3.812
		c2.119,0,3.812,1.709,3.812,3.812v13.674C420.131,320.063,418.43,321.772,416.319,321.772z"/>
	<path style="fill:#918167;" d="M416.319,346.876c-2.111,0-3.812-1.701-3.812-3.812v-11.445c0-2.111,1.709-3.812,3.812-3.812
		c2.119,0,3.812,1.709,3.812,3.812v11.445C420.131,345.175,418.43,346.876,416.319,346.876z"/>
</g>
<g>
</g>
<g>
</g>
<g>
</g>
<g>
</g>
<g>
</g>
<g>
</g>
<g>
</g>
<g>
</g>
<g>
</g>
<g>
</g>
<g>
</g>
<g>
</g>
<g>
</g>
<g>
</g>
<g>
</g>
</svg>
